<svg width="16" height="18" viewBox="0 0 16 18" fill="none" xmlns="http://www.w3.org/2000/svg">
<path fill-rule="evenodd" clip-rule="evenodd" d="M3.97949 7.8153e-08H12.0213C12.8558 7.8153e-08 13.4302 7.48506e-08 13.9134 0.170787C14.3651 0.333544 14.7739 0.600411 15.1081 0.950637C15.4422 1.30086 15.6927 1.72501 15.84 2.19009C16.0008 2.68989 16 3.2843 16 4.16586V16.0104C16 17.2377 14.583 17.9678 13.6501 17.0963C13.6201 17.067 13.5803 17.0507 13.5389 17.0507C13.4974 17.0507 13.4576 17.067 13.4277 17.0963L13.0306 17.4663C12.2691 18.1779 11.1155 18.1779 10.3541 17.4663C10.2162 17.335 10.0347 17.262 9.84615 17.262C9.6576 17.262 9.47607 17.335 9.33826 17.4663C8.57682 18.1779 7.42318 18.1779 6.66174 17.4663C6.52393 17.335 6.3424 17.262 6.15385 17.262C5.96529 17.262 5.78377 17.335 5.64595 17.4663C4.88451 18.1779 3.73087 18.1779 2.96944 17.4663L2.57313 17.0963C2.54316 17.0668 2.50316 17.0503 2.46154 17.0503C2.41992 17.0503 2.37992 17.0668 2.34995 17.0963C1.41703 17.9669 0 17.2377 0 16.0104V4.16669C0 3.2843 -4.89064e-08 2.68989 0.16 2.19009C0.307257 1.72498 0.557703 1.3008 0.891852 0.950569C1.226 0.600335 1.63484 0.333487 2.08656 0.170787C2.57067 -0.000837117 3.14503 7.8153e-08 3.97949 7.8153e-08ZM4.09928 1.25578C3.09744 1.25578 2.752 1.26416 2.49108 1.35708C2.21857 1.45652 1.97216 1.61865 1.77096 1.83091C1.56976 2.04316 1.41918 2.29985 1.33087 2.58106C1.23979 2.86486 1.23241 3.23825 1.23241 4.28641V16.0104C1.23241 16.1109 1.28082 16.1712 1.34236 16.2005C1.37044 16.2141 1.40174 16.2193 1.43262 16.2155C1.46592 16.2101 1.49667 16.1939 1.52041 16.1695C1.77716 15.9283 2.11338 15.7945 2.46236 15.7945C2.81134 15.7945 3.14756 15.9283 3.40431 16.1695L3.80062 16.5395C3.93843 16.6708 4.11996 16.7438 4.30851 16.7438C4.49707 16.7438 4.67859 16.6708 4.81641 16.5395C5.18108 16.1967 5.6588 16.0064 6.15467 16.0064C6.65053 16.0064 7.12825 16.1967 7.49292 16.5395C7.63074 16.6708 7.81227 16.7438 8.00082 16.7438C8.18937 16.7438 8.3709 16.6708 8.50872 16.5395C8.87339 16.1967 9.35111 16.0064 9.84697 16.0064C10.3428 16.0064 10.8206 16.1967 11.1852 16.5395C11.323 16.6708 11.5046 16.7438 11.6931 16.7438C11.8817 16.7438 12.0632 16.6708 12.201 16.5395L12.5973 16.1695C12.8541 15.9283 13.1903 15.7945 13.5393 15.7945C13.8883 15.7945 14.2245 15.9283 14.4812 16.1695C14.5165 16.203 14.5469 16.213 14.5698 16.2155C14.6005 16.2192 14.6314 16.214 14.6593 16.2005C14.7208 16.1712 14.7701 16.11 14.7701 16.0104V4.28641C14.7701 3.23825 14.7618 2.86486 14.6716 2.58106C14.5832 2.29964 14.4324 2.04281 14.2309 1.83054C14.0293 1.61826 13.7826 1.45624 13.5097 1.35708C13.2496 1.26499 12.9042 1.25662 11.9024 1.25662L4.09928 1.25578ZM3.28287 5.23244C3.28287 5.06591 3.34771 4.9062 3.46311 4.78845C3.57852 4.6707 3.73505 4.60454 3.89826 4.60454H4.30851C4.47172 4.60454 4.62825 4.6707 4.74366 4.78845C4.85906 4.9062 4.9239 5.06591 4.9239 5.23244C4.9239 5.39896 4.85906 5.55867 4.74366 5.67642C4.62825 5.79418 4.47172 5.86033 4.30851 5.86033H3.89826C3.73505 5.86033 3.57852 5.79418 3.46311 5.67642C3.34771 5.55867 3.28287 5.39896 3.28287 5.23244ZM6.15467 5.23244C6.15467 5.06591 6.2195 4.9062 6.33491 4.78845C6.45032 4.6707 6.60684 4.60454 6.77005 4.60454H12.1034C12.2666 4.60454 12.4231 4.6707 12.5385 4.78845C12.6539 4.9062 12.7188 5.06591 12.7188 5.23244C12.7188 5.39896 12.6539 5.55867 12.5385 5.67642C12.4231 5.79418 12.2666 5.86033 12.1034 5.86033H6.77005C6.60684 5.86033 6.45032 5.79418 6.33491 5.67642C6.2195 5.55867 6.15467 5.39896 6.15467 5.23244ZM3.28287 8.1626C3.28287 7.99607 3.34771 7.83637 3.46311 7.71861C3.57852 7.60086 3.73505 7.53471 3.89826 7.53471H4.30851C4.47172 7.53471 4.62825 7.60086 4.74366 7.71861C4.85906 7.83637 4.9239 7.99607 4.9239 8.1626C4.9239 8.32913 4.85906 8.48883 4.74366 8.60659C4.62825 8.72434 4.47172 8.79049 4.30851 8.79049H3.89826C3.73505 8.79049 3.57852 8.72434 3.46311 8.60659C3.34771 8.48883 3.28287 8.32913 3.28287 8.1626ZM6.15467 8.1626C6.15467 7.99607 6.2195 7.83637 6.33491 7.71861C6.45032 7.60086 6.60684 7.53471 6.77005 7.53471H12.1034C12.2666 7.53471 12.4231 7.60086 12.5385 7.71861C12.6539 7.83637 12.7188 7.99607 12.7188 8.1626C12.7188 8.32913 12.6539 8.48883 12.5385 8.60659C12.4231 8.72434 12.2666 8.79049 12.1034 8.79049H6.77005C6.60684 8.79049 6.45032 8.72434 6.33491 8.60659C6.2195 8.48883 6.15467 8.32913 6.15467 8.1626ZM3.28287 11.0928C3.28287 10.9262 3.34771 10.7665 3.46311 10.6488C3.57852 10.531 3.73505 10.4649 3.89826 10.4649H4.30851C4.47172 10.4649 4.62825 10.531 4.74366 10.6488C4.85906 10.7665 4.9239 10.9262 4.9239 11.0928C4.9239 11.2593 4.85906 11.419 4.74366 11.5368C4.62825 11.6545 4.47172 11.7207 4.30851 11.7207H3.89826C3.73505 11.7207 3.57852 11.6545 3.46311 11.5368C3.34771 11.419 3.28287 11.2593 3.28287 11.0928ZM6.15467 11.0928C6.15467 10.9262 6.2195 10.7665 6.33491 10.6488C6.45032 10.531 6.60684 10.4649 6.77005 10.4649H12.1034C12.2666 10.4649 12.4231 10.531 12.5385 10.6488C12.6539 10.7665 12.7188 10.9262 12.7188 11.0928C12.7188 11.2593 12.6539 11.419 12.5385 11.5368C12.4231 11.6545 12.2666 11.7207 12.1034 11.7207H6.77005C6.60684 11.7207 6.45032 11.6545 6.33491 11.5368C6.2195 11.419 6.15467 11.2593 6.15467 11.0928Z" fill="#4C4E52"/>
</svg>
