<svg width="17" height="19" viewBox="0 0 17 19" fill="none" xmlns="http://www.w3.org/2000/svg">
<path fill-rule="evenodd" clip-rule="evenodd" d="M4.22821 8.13835e-08H12.7727C13.6593 8.13835e-08 14.2695 7.79445e-08 14.783 0.177846C15.2629 0.347331 15.6973 0.625229 16.0523 0.989931C16.4074 1.35463 16.6735 1.79631 16.83 2.28062C17.0009 2.80108 17 3.42005 17 4.33805V16.6722C17 17.9503 15.4944 18.7105 14.5032 17.8029C14.4714 17.7725 14.4291 17.7555 14.3851 17.7555C14.341 17.7555 14.2987 17.7725 14.2669 17.8029L13.845 18.1883C13.0359 18.9293 11.8102 18.9293 11.0012 18.1883C10.8547 18.0515 10.6619 17.9755 10.4615 17.9755C10.2612 17.9755 10.0683 18.0515 9.9219 18.1883C9.11287 18.9293 7.88713 18.9293 7.0781 18.1883C6.93167 18.0515 6.7388 17.9755 6.53846 17.9755C6.33812 17.9755 6.14525 18.0515 5.99882 18.1883C5.1898 18.9293 3.96405 18.9293 3.15503 18.1883L2.73395 17.8029C2.70211 17.7722 2.65961 17.7551 2.61538 17.7551C2.57116 17.7551 2.52866 17.7722 2.49682 17.8029C1.50559 18.7096 0 17.9503 0 16.6722V4.33892C0 3.42005 -5.1963e-08 2.80108 0.17 2.28062C0.32646 1.79628 0.592559 1.35457 0.947592 0.989861C1.30263 0.62515 1.73702 0.347272 2.21697 0.177846C2.73133 -0.000871719 3.34159 8.13835e-08 4.22821 8.13835e-08ZM4.35549 1.30769C3.29103 1.30769 2.924 1.31641 2.64677 1.41318C2.35723 1.51672 2.09542 1.68555 1.88165 1.90659C1.66788 2.12762 1.50787 2.39491 1.41405 2.68774C1.31728 2.98328 1.30944 3.3721 1.30944 4.46359V16.6722C1.30944 16.7768 1.36087 16.8396 1.42626 16.8701C1.45609 16.8843 1.48935 16.8898 1.52215 16.8858C1.55754 16.8801 1.59021 16.8633 1.61544 16.8378C1.88823 16.5867 2.24547 16.4473 2.61626 16.4473C2.98704 16.4473 3.34428 16.5867 3.61708 16.8378L4.03815 17.2232C4.18458 17.3599 4.37746 17.4359 4.5778 17.4359C4.77813 17.4359 4.97101 17.3599 5.11744 17.2232C5.5049 16.8662 6.01248 16.668 6.53933 16.668C7.06619 16.668 7.57377 16.8662 7.96123 17.2232C8.10766 17.3599 8.30053 17.4359 8.50087 17.4359C8.70121 17.4359 8.89408 17.3599 9.04051 17.2232C9.42798 16.8662 9.93555 16.668 10.4624 16.668C10.9893 16.668 11.4968 16.8662 11.8843 17.2232C12.0307 17.3599 12.2236 17.4359 12.4239 17.4359C12.6243 17.4359 12.8172 17.3599 12.9636 17.2232L13.3847 16.8378C13.6575 16.5867 14.0147 16.4473 14.3855 16.4473C14.7563 16.4473 15.1135 16.5867 15.3863 16.8378C15.4238 16.8727 15.4561 16.8832 15.4805 16.8858C15.513 16.8896 15.5459 16.8841 15.5755 16.8701C15.6409 16.8396 15.6932 16.7759 15.6932 16.6722V4.46359C15.6932 3.3721 15.6845 2.98328 15.5886 2.68774C15.4946 2.3947 15.3344 2.12725 15.1203 1.9062C14.9062 1.68515 14.644 1.51644 14.3541 1.41318C14.0777 1.31728 13.7107 1.30856 12.6463 1.30856L4.35549 1.30769ZM3.48805 5.44872C3.48805 5.27531 3.55694 5.109 3.67956 4.98638C3.80218 4.86376 3.96849 4.79487 4.1419 4.79487H4.5778C4.75121 4.79487 4.91751 4.86376 5.04013 4.98638C5.16275 5.109 5.23164 5.27531 5.23164 5.44872C5.23164 5.62213 5.16275 5.78844 5.04013 5.91106C4.91751 6.03368 4.75121 6.10256 4.5778 6.10256H4.1419C3.96849 6.10256 3.80218 6.03368 3.67956 5.91106C3.55694 5.78844 3.48805 5.62213 3.48805 5.44872ZM6.53933 5.44872C6.53933 5.27531 6.60822 5.109 6.73084 4.98638C6.85346 4.86376 7.01977 4.79487 7.19318 4.79487H12.8598C13.0333 4.79487 13.1996 4.86376 13.3222 4.98638C13.4448 5.109 13.5137 5.27531 13.5137 5.44872C13.5137 5.62213 13.4448 5.78844 13.3222 5.91106C13.1996 6.03368 13.0333 6.10256 12.8598 6.10256H7.19318C7.01977 6.10256 6.85346 6.03368 6.73084 5.91106C6.60822 5.78844 6.53933 5.62213 6.53933 5.44872ZM3.48805 8.5C3.48805 8.32659 3.55694 8.16028 3.67956 8.03766C3.80218 7.91504 3.96849 7.84615 4.1419 7.84615H4.5778C4.75121 7.84615 4.91751 7.91504 5.04013 8.03766C5.16275 8.16028 5.23164 8.32659 5.23164 8.5C5.23164 8.67341 5.16275 8.83972 5.04013 8.96234C4.91751 9.08496 4.75121 9.15385 4.5778 9.15385H4.1419C3.96849 9.15385 3.80218 9.08496 3.67956 8.96234C3.55694 8.83972 3.48805 8.67341 3.48805 8.5ZM6.53933 8.5C6.53933 8.32659 6.60822 8.16028 6.73084 8.03766C6.85346 7.91504 7.01977 7.84615 7.19318 7.84615H12.8598C13.0333 7.84615 13.1996 7.91504 13.3222 8.03766C13.4448 8.16028 13.5137 8.32659 13.5137 8.5C13.5137 8.67341 13.4448 8.83972 13.3222 8.96234C13.1996 9.08496 13.0333 9.15385 12.8598 9.15385H7.19318C7.01977 9.15385 6.85346 9.08496 6.73084 8.96234C6.60822 8.83972 6.53933 8.67341 6.53933 8.5ZM3.48805 11.5513C3.48805 11.3779 3.55694 11.2116 3.67956 11.0889C3.80218 10.9663 3.96849 10.8974 4.1419 10.8974H4.5778C4.75121 10.8974 4.91751 10.9663 5.04013 11.0889C5.16275 11.2116 5.23164 11.3779 5.23164 11.5513C5.23164 11.7247 5.16275 11.891 5.04013 12.0136C4.91751 12.1362 4.75121 12.2051 4.5778 12.2051H4.1419C3.96849 12.2051 3.80218 12.1362 3.67956 12.0136C3.55694 11.891 3.48805 11.7247 3.48805 11.5513ZM6.53933 11.5513C6.53933 11.3779 6.60822 11.2116 6.73084 11.0889C6.85346 10.9663 7.01977 10.8974 7.19318 10.8974H12.8598C13.0333 10.8974 13.1996 10.9663 13.3222 11.0889C13.4448 11.2116 13.5137 11.3779 13.5137 11.5513C13.5137 11.7247 13.4448 11.891 13.3222 12.0136C13.1996 12.1362 13.0333 12.2051 12.8598 12.2051H7.19318C7.01977 12.2051 6.85346 12.1362 6.73084 12.0136C6.60822 11.891 6.53933 11.7247 6.53933 11.5513Z" fill="white"/>
</svg>
