<svg width="20" height="20" viewBox="0 0 20 20" fill="none" xmlns="http://www.w3.org/2000/svg">
<path d="M14.8462 1H5.15385C4.05218 1 2.99563 1.43764 2.21663 2.21663C1.43764 2.99563 1 4.05218 1 5.15385V14.8462C1 15.9478 1.43764 17.0044 2.21663 17.7834C2.99563 18.5624 4.05218 19 5.15385 19H14.8462C15.9478 19 17.0044 18.5624 17.7834 17.7834C18.5624 17.0044 19 15.9478 19 14.8462V5.15385C19 4.05218 18.5624 2.99563 17.7834 2.21663C17.0044 1.43764 15.9478 1 14.8462 1Z" stroke="#05CD99" stroke-width="1.5" stroke-linecap="round" stroke-linejoin="round"/>
<path d="M14.0382 6.88477L8.4997 13.8078L5.73047 11.7309" stroke="#05CD99" stroke-width="1.5" stroke-linecap="round" stroke-linejoin="round"/>
</svg>
