<svg width="15" height="15" viewBox="0 0 15 15" fill="none" xmlns="http://www.w3.org/2000/svg">
<path d="M7.5 11.3325L3.70929 7.54071L4.46679 6.77036L6.96429 9.26786V0H8.03571V9.26786L10.5321 6.77143L11.2907 7.54071L7.5 11.3325ZM1.73036 15C1.2375 15 0.826071 14.835 0.496071 14.505C0.165357 14.1743 0 13.7625 0 13.2696V10.6736H1.07143V13.2696C1.07143 13.4339 1.14 13.585 1.27714 13.7229C1.415 13.86 1.56607 13.9286 1.73036 13.9286H13.2696C13.4339 13.9286 13.585 13.86 13.7229 13.7229C13.86 13.585 13.9286 13.4339 13.9286 13.2696V10.6736H15V13.2696C15 13.7625 14.835 14.1739 14.505 14.5039C14.1743 14.8346 13.7625 15 13.2696 15H1.73036Z" fill="#0095FF"/>
</svg>
