<svg width="18" height="18" viewBox="0 0 18 18" fill="none" xmlns="http://www.w3.org/2000/svg">
<path d="M9 18C4.03714 18 0 13.9629 0 9C0 4.03714 4.03714 0 9 0C13.9629 0 18 4.03714 18 9C18 13.9629 13.9629 18 9 18ZM9 1.28571C4.74429 1.28571 1.28571 4.74429 1.28571 9C1.28571 13.2557 4.74429 16.7143 9 16.7143C13.2557 16.7143 16.7143 13.2557 16.7143 9C16.7143 4.74429 13.2557 1.28571 9 1.28571Z" fill="#4C4E52"/>
<path d="M9.00112 4.5C7.57397 4.5 6.42969 5.64429 6.42969 7.07143H7.7154C7.7154 6.36429 8.29397 5.78571 9.00112 5.78571C9.70826 5.78571 10.2868 6.36429 10.2868 7.07143C10.2868 8.35714 8.35826 8.20286 8.35826 10.2857H9.64397C9.64397 8.84571 11.5725 8.67857 11.5725 7.07143C11.5725 5.64429 10.4283 4.5 9.00112 4.5Z" fill="#4C4E52"/>
<path d="M9.00027 13.6543C9.44052 13.6543 9.79741 13.2975 9.79741 12.8572C9.79741 12.417 9.44052 12.0601 9.00027 12.0601C8.56002 12.0601 8.20312 12.417 8.20312 12.8572C8.20312 13.2975 8.56002 13.6543 9.00027 13.6543Z" fill="#4C4E52"/>
<path d="M7.07254 7.71443C7.42758 7.71443 7.7154 7.42661 7.7154 7.07157C7.7154 6.71653 7.42758 6.42871 7.07254 6.42871C6.7175 6.42871 6.42969 6.71653 6.42969 7.07157C6.42969 7.42661 6.7175 7.71443 7.07254 7.71443Z" fill="#4C4E52"/>
<path d="M9.00028 10.9285C9.35532 10.9285 9.64314 10.6407 9.64314 10.2857C9.64314 9.93064 9.35532 9.64282 9.00028 9.64282C8.64524 9.64282 8.35742 9.93064 8.35742 10.2857C8.35742 10.6407 8.64524 10.9285 9.00028 10.9285Z" fill="#4C4E52"/>
</svg>
