<svg width="21" height="21" viewBox="0 0 21 21" fill="none" xmlns="http://www.w3.org/2000/svg">
<path d="M7.32167 0C8.6039 0 9.63849 -1.39771e-08 10.4517 0.109744C11.2959 0.222302 12.0069 0.466178 12.5716 1.02991C13.0631 1.52235 13.3126 2.12735 13.443 2.83834C13.5696 3.52963 13.594 4.37476 13.5996 5.38966C13.6006 5.57623 13.5274 5.75556 13.3962 5.8882C13.265 6.02083 13.0864 6.0959 12.8999 6.0969C12.7133 6.09789 12.534 6.02473 12.4013 5.8935C12.2687 5.76228 12.1936 5.58374 12.1926 5.39716C12.187 4.37194 12.1607 3.64501 12.0594 3.09253C11.9609 2.56163 11.8043 2.25304 11.5764 2.02511C11.3165 1.76529 10.9517 1.59645 10.2632 1.50359C9.55501 1.40885 8.61609 1.40698 7.27008 1.40698H6.3321C4.98515 1.40698 4.04623 1.40885 3.33805 1.50359C2.64958 1.59645 2.28564 1.76622 2.02488 2.02511C1.76599 2.28493 1.59716 2.64887 1.5043 3.33829C1.40862 4.04553 1.40768 4.98539 1.40768 6.33139V13.8353C1.40768 15.1813 1.40862 16.1202 1.5043 16.8293C1.59716 17.5178 1.76599 17.8817 2.02582 18.1416C2.28564 18.4014 2.64958 18.5702 3.33805 18.6631C4.04623 18.7578 4.98515 18.7597 6.3321 18.7597H7.27008C8.61609 18.7597 9.55501 18.7578 10.2641 18.6631C10.9517 18.5702 11.3165 18.4004 11.5764 18.1416C11.8043 17.9127 11.9609 17.605 12.0594 17.0741C12.1607 16.5217 12.187 15.7947 12.1926 14.7695C12.1931 14.6771 12.2118 14.5857 12.2476 14.5006C12.2834 14.4154 12.3356 14.3381 12.4013 14.2732C12.467 14.2082 12.5448 14.1568 12.6304 14.1219C12.7159 14.087 12.8075 14.0693 12.8999 14.0698C12.9922 14.0703 13.0836 14.0889 13.1688 14.1247C13.254 14.1606 13.3312 14.2128 13.3962 14.2785C13.4612 14.3441 13.5126 14.422 13.5475 14.5075C13.5824 14.593 13.6001 14.6846 13.5996 14.777C13.594 15.7919 13.5696 16.637 13.443 17.3283C13.3116 18.0393 13.0631 18.6443 12.5706 19.1368C12.0069 19.7014 11.295 19.9434 10.4508 20.0579C9.63849 20.1667 8.6039 20.1667 7.32167 20.1667H6.28051C4.99735 20.1667 3.96369 20.1667 3.15046 20.0579C2.30627 19.9434 1.59528 19.7014 1.03061 19.1368C0.465947 18.5721 0.223947 17.8611 0.109513 17.0169C0.000706673 16.2037 0.000707626 15.1691 0.000707626 13.8869V6.2798C0.000707626 4.99758 0.000706673 3.96298 0.109513 3.14975C0.223009 2.30556 0.465947 1.59457 1.03061 1.02991C1.59528 0.46524 2.30627 0.22324 3.15046 0.109744C3.96369 -1.39771e-08 4.99829 0 6.28051 0H7.32167Z" fill="#FE6470"/>
<path d="M7.27017 9.37997C7.08359 9.37997 6.90466 9.45408 6.77273 9.58601C6.6408 9.71794 6.56668 9.89688 6.56668 10.0835C6.56668 10.27 6.6408 10.449 6.77273 10.5809C6.90466 10.7128 7.08359 10.7869 7.27017 10.7869H17.5627L15.7233 12.3628C15.5815 12.4842 15.4937 12.6569 15.4793 12.843C15.4649 13.0291 15.525 13.2133 15.6464 13.3551C15.7678 13.4969 15.9405 13.5847 16.1266 13.5991C16.3127 13.6136 16.497 13.5535 16.6388 13.4321L19.9217 10.6181C19.9989 10.5521 20.0609 10.4701 20.1034 10.3778C20.146 10.2855 20.168 10.1851 20.168 10.0835C20.168 9.98184 20.146 9.88143 20.1034 9.78913C20.0609 9.69684 19.9989 9.61485 19.9217 9.5488L16.6388 6.73485C16.5685 6.67474 16.4872 6.62905 16.3993 6.60038C16.3114 6.57171 16.2188 6.56064 16.1266 6.56778C16.0345 6.57492 15.9446 6.60014 15.8622 6.64201C15.7798 6.68387 15.7065 6.74155 15.6464 6.81177C15.5863 6.88198 15.5406 6.96334 15.5119 7.05121C15.4832 7.13908 15.4721 7.23174 15.4793 7.32389C15.4864 7.41604 15.5117 7.50588 15.5535 7.58829C15.5954 7.67069 15.6531 7.74404 15.7233 7.80415L17.5617 9.37997H7.27017Z" fill="#FE6470"/>
</svg>
