<svg width="24" height="24" viewBox="0 0 24 24" fill="none" xmlns="http://www.w3.org/2000/svg">
<path d="M3.44426 12C4.62099 11.1174 6.07659 10.6889 7.54382 10.7931C9.01104 10.8974 10.3914 11.5275 11.4315 12.5677C12.4716 13.6079 13.1016 14.9883 13.2059 16.4557C13.3102 17.923 12.8817 19.3787 11.9991 20.5556M3.44426 12C2.68485 12.5688 2.06851 13.3068 1.64421 14.1555C1.21991 15.0041 0.999336 15.94 1 16.8889C0.999609 17.5034 1.0919 18.1145 1.27376 18.7014C1.60618 19.777 1.36664 20.9748 1.15277 22.1041C1.1338 22.2006 1.14005 22.3004 1.17091 22.3938C1.20177 22.4872 1.2562 22.5711 1.32893 22.6373C1.40167 22.7036 1.49026 22.7499 1.58613 22.7719C1.68201 22.7939 1.78194 22.7908 1.87627 22.7629C2.91263 22.4793 3.94288 22.2373 5.00125 22.626C5.6768 22.8742 6.39095 23.0008 7.11064 23C8.05943 23.0009 8.99535 22.7803 9.84398 22.356C10.6926 21.9316 11.4306 21.3152 11.9991 20.5556M3.44426 12C3.44426 6.27389 6.95787 1 13.2213 1C14.7892 0.999727 16.3342 1.37658 17.7259 2.09878C19.1177 2.82097 20.3153 3.86731 21.2179 5.14955C22.1204 6.43178 22.7013 7.91228 22.9116 9.46616C23.122 11.02 22.9555 12.6017 22.4263 14.0778C21.8446 15.6984 22.4716 17.8691 22.8382 19.6609C22.8596 19.7563 22.8552 19.8557 22.8255 19.9488C22.7958 20.0419 22.7419 20.1255 22.6692 20.1909C22.5966 20.2564 22.5078 20.3013 22.4121 20.3211C22.3164 20.341 22.2171 20.335 22.1245 20.3038C20.521 19.8027 18.639 19.0987 17.1321 19.7342C15.5018 20.4211 13.7883 20.5556 11.9991 20.5556" stroke="#A3AED0" stroke-width="2" stroke-linecap="round" stroke-linejoin="round"/>
</svg>
