<svg width="19" height="20" viewBox="0 0 19 20" fill="none" xmlns="http://www.w3.org/2000/svg">
<path d="M5.5 8V6C5.5 3.239 6.739 1 9.5 1C12.261 1 13.5 3.239 13.5 6V8M9.5 13.75V13.25M13.5 13.75V13.25M5.5 13.75V13.25M1 15.8V11.2C1 10.08 1 9.52 1.218 9.093C1.40957 8.71632 1.71554 8.41 2.092 8.218C2.52 8.001 3.08 8.001 4.2 8.001H14.8C15.92 8.001 16.48 8.001 16.908 8.218C17.2843 8.40974 17.5903 8.71569 17.782 9.092C18 9.52 18 10.08 18 11.2V15.8C18 16.92 18 17.48 17.782 17.908C17.5903 18.2843 17.2843 18.5903 16.908 18.782C16.48 19 15.92 19 14.8 19H4.2C3.08 19 2.52 19 2.092 18.782C1.71569 18.5903 1.40974 18.2843 1.218 17.908C1 17.481 1 16.921 1 15.8Z" stroke="white" stroke-width="1.4" stroke-linecap="round" stroke-linejoin="round"/>
</svg>
