<svg width="17" height="17" viewBox="0 0 17 17" fill="none" xmlns="http://www.w3.org/2000/svg">
<path d="M1.70417 3.40068H15.3103V5.10145H1.70417V3.40068ZM3.40494 0H13.6095V1.70077H3.40494V0ZM15.3043 6.79541H1.70332C1.47908 6.79597 1.25715 6.84069 1.05019 6.92701C0.843228 7.01334 0.6553 7.13959 0.497132 7.29855C0.338965 7.45751 0.213655 7.64606 0.128358 7.85345C0.0430603 8.06083 -0.000553758 8.28299 5.30737e-06 8.50723V15.2882C-0.000553758 15.5124 0.0430603 15.7346 0.128358 15.942C0.213655 16.1493 0.338965 16.3379 0.497132 16.4969C0.6553 16.6558 0.843228 16.7821 1.05019 16.8684C1.25715 16.9547 1.47908 16.9994 1.70332 17H15.3043C15.5286 16.9994 15.7505 16.9547 15.9575 16.8684C16.1644 16.7821 16.3524 16.6558 16.5105 16.4969C16.6687 16.3379 16.794 16.1493 16.8793 15.942C16.9646 15.7346 17.0082 15.5124 17.0077 15.2882V8.50723C17.0082 8.28299 16.9646 8.06083 16.8793 7.85345C16.794 7.64606 16.6687 7.45751 16.5105 7.29855C16.3524 7.13959 16.1644 7.01334 15.9575 6.92701C15.7505 6.84069 15.5286 6.79597 15.3043 6.79541ZM15.3069 15.3069H1.70077V8.50383H15.3069V15.3069Z" fill="#4C4E52"/>
<path d="M7.6578 14.449H9.35856V12.7576H11.0593V11.0534H9.35856V9.34668H7.6578V11.0559H5.95703V12.7576H7.6578V14.449Z" fill="#4C4E52"/>
</svg>
